HIERARCHY
ROOT Hips
{
	OFFSET 0.000000 97.167313 0.000000
	CHANNELS 6 Xposition Yposition Zposition Xrotation Yrotation Zrotation
	JOINT Spine
	{
		OFFSET 0.000000 13.784798 0.064400
		CHANNELS 3 Xrotation Yrotation Zrotation
		JOINT Spine1
		{
			OFFSET 0.000000 12.037903 0.404700
			CHANNELS 3 Xrotation Yrotation Zrotation
			JOINT Spine2
			{
				OFFSET 0.000000 17.795601 0.420200
				CHANNELS 3 Xrotation Yrotation Zrotation
				JOINT Neck
				{
					OFFSET 0.000000 39.131302 11.954600
					CHANNELS 3 Xrotation Yrotation Zrotation
					JOINT Head
					{
						OFFSET 0.000000 14.456192 15.627699
						CHANNELS 3 Xrotation Yrotation Zrotation
						JOINT HeadTop_End
						{
							OFFSET 0.000000 15.703506 7.603401
							CHANNELS 3 Xrotation Yrotation Zrotation
							End Site
							{
								OFFSET 0.000000 17.447403 0.000000
							}
						}
					}
				}
				JOINT LeftShoulder
				{
					OFFSET 17.399500 24.608795 1.168800
					CHANNELS 3 Xrotation Yrotation Zrotation
					JOINT LeftArm
					{
						OFFSET 18.980635 5.765305 1.818600
						CHANNELS 3 Xrotation Yrotation Zrotation
						JOINT LeftForeArm
						{
							OFFSET 49.290169 0.000000 0.000000
							CHANNELS 3 Xrotation Yrotation Zrotation
							JOINT LeftHand
							{
								OFFSET 31.562012 0.000000 0.000000
								CHANNELS 3 Xrotation Yrotation Zrotation
								JOINT LeftHandThumb1
								{
									OFFSET 6.133995 -4.388519 7.076070
									CHANNELS 3 Xrotation Yrotation Zrotation
									JOINT LeftHandThumb2
									{
										OFFSET 6.037666 -3.485840 3.485847
										CHANNELS 3 Xrotation Yrotation Zrotation
										JOINT LeftHandThumb3
										{
											OFFSET 6.496506 -3.750763 3.750761
											CHANNELS 3 Xrotation Yrotation Zrotation
											JOINT LeftHandThumb4
											{
												OFFSET 5.616882 -3.242905 3.242910
												CHANNELS 3 Xrotation Yrotation Zrotation
												End Site
												{
													OFFSET -1.254608 7.132141 0.375429
												}
											}
										}
									}
								}
								JOINT LeftHandPinky1
								{
									OFFSET 18.920792 -0.453171 -11.426712
									CHANNELS 3 Xrotation Yrotation Zrotation
									JOINT LeftHandPinky2
									{
										OFFSET 4.919586 0.000000 0.000000
										CHANNELS 3 Xrotation Yrotation Zrotation
										JOINT LeftHandPinky3
										{
											OFFSET 5.233047 0.000000 0.000000
											CHANNELS 3 Xrotation Yrotation Zrotation
											JOINT LeftHandPinky4
											{
												OFFSET 5.571716 0.000000 0.000000
												CHANNELS 3 Xrotation Yrotation Zrotation
												End Site
												{
													OFFSET -3.459808 4.342407 -0.466164
												}
											}
										}
									}
								}
								JOINT LeftHandRing1
								{
									OFFSET 22.726120 -0.094986 -6.500475
									CHANNELS 3 Xrotation Yrotation Zrotation
									JOINT LeftHandRing2
									{
										OFFSET 6.408615 0.000000 0.000000
										CHANNELS 3 Xrotation Yrotation Zrotation
										JOINT LeftHandRing3
										{
											OFFSET 6.150223 0.000000 0.000000
											CHANNELS 3 Xrotation Yrotation Zrotation
											JOINT LeftHandRing4
											{
												OFFSET 6.145386 0.000000 0.000000
												CHANNELS 3 Xrotation Yrotation Zrotation
												End Site
												{
													OFFSET -3.671402 4.923981 -0.202372
												}
											}
										}
									}
								}
								JOINT LeftHandMiddle1
								{
									OFFSET 23.373947 0.000000 0.000001
									CHANNELS 3 Xrotation Yrotation Zrotation
									JOINT LeftHandMiddle2
									{
										OFFSET 6.996567 0.000000 0.000000
										CHANNELS 3 Xrotation Yrotation Zrotation
										JOINT LeftHandMiddle3
										{
											OFFSET 7.015945 0.000000 0.000000
											CHANNELS 3 Xrotation Yrotation Zrotation
											JOINT LeftHandMiddle4
											{
												OFFSET 7.721573 0.000000 0.000000
												CHANNELS 3 Xrotation Yrotation Zrotation
												End Site
												{
													OFFSET -4.651108 6.158463 0.251582
												}
											}
										}
									}
								}
								JOINT LeftHandIndex1
								{
									OFFSET 21.310577 -0.490082 6.209344
									CHANNELS 3 Xrotation Yrotation Zrotation
									JOINT LeftHandIndex2
									{
										OFFSET 7.536453 0.000000 0.000000
										CHANNELS 3 Xrotation Yrotation Zrotation
										JOINT LeftHandIndex3
										{
											OFFSET 7.512344 0.000000 0.000000
											CHANNELS 3 Xrotation Yrotation Zrotation
											JOINT LeftHandIndex4
											{
												OFFSET 10.212402 0.000000 0.000001
												CHANNELS 3 Xrotation Yrotation Zrotation
												End Site
												{
													OFFSET -5.180801 8.690506 1.388433
												}
											}
										}
									}
								}
							}
						}
					}
				}
				JOINT RightShoulder
				{
					OFFSET -17.399500 24.608795 1.168800
					CHANNELS 3 Xrotation Yrotation Zrotation
					JOINT RightArm
					{
						OFFSET -18.980635 5.765305 1.818600
						CHANNELS 3 Xrotation Yrotation Zrotation
						JOINT RightForeArm
						{
							OFFSET -49.290169 0.000000 0.000000
							CHANNELS 3 Xrotation Yrotation Zrotation
							JOINT RightHand
							{
								OFFSET -31.562012 0.000000 0.000000
								CHANNELS 3 Xrotation Yrotation Zrotation
								JOINT RightHandThumb1
								{
									OFFSET -6.133995 -4.388519 7.076070
									CHANNELS 3 Xrotation Yrotation Zrotation
									JOINT RightHandThumb2
									{
										OFFSET -6.037666 -3.485840 3.485847
										CHANNELS 3 Xrotation Yrotation Zrotation
										JOINT RightHandThumb3
										{
											OFFSET -6.496506 -3.750763 3.750761
											CHANNELS 3 Xrotation Yrotation Zrotation
											JOINT RightHandThumb4
											{
												OFFSET -5.616882 -3.242905 3.242910
												CHANNELS 3 Xrotation Yrotation Zrotation
												End Site
												{
													OFFSET 1.254608 7.132141 0.375429
												}
											}
										}
									}
								}
								JOINT RightHandIndex1
								{
									OFFSET -21.310577 -0.490082 6.209344
									CHANNELS 3 Xrotation Yrotation Zrotation
									JOINT RightHandIndex2
									{
										OFFSET -7.536453 0.000000 0.000000
										CHANNELS 3 Xrotation Yrotation Zrotation
										JOINT RightHandIndex3
										{
											OFFSET -7.512344 0.000000 0.000000
											CHANNELS 3 Xrotation Yrotation Zrotation
											JOINT RightHandIndex4
											{
												OFFSET -10.212402 0.000000 0.000001
												CHANNELS 3 Xrotation Yrotation Zrotation
												End Site
												{
													OFFSET 5.180801 8.690506 1.388433
												}
											}
										}
									}
								}
								JOINT RightHandMiddle1
								{
									OFFSET -23.373947 0.000000 0.000001
									CHANNELS 3 Xrotation Yrotation Zrotation
									JOINT RightHandMiddle2
									{
										OFFSET -6.996567 0.000000 0.000000
										CHANNELS 3 Xrotation Yrotation Zrotation
										JOINT RightHandMiddle3
										{
											OFFSET -7.015945 0.000000 0.000000
											CHANNELS 3 Xrotation Yrotation Zrotation
											JOINT RightHandMiddle4
											{
												OFFSET -7.721573 0.000000 0.000000
												CHANNELS 3 Xrotation Yrotation Zrotation
												End Site
												{
													OFFSET 4.651108 6.158463 0.251582
												}
											}
										}
									}
								}
								JOINT RightHandRing1
								{
									OFFSET -22.726120 -0.094986 -6.500475
									CHANNELS 3 Xrotation Yrotation Zrotation
									JOINT RightHandRing2
									{
										OFFSET -6.408615 0.000000 0.000000
										CHANNELS 3 Xrotation Yrotation Zrotation
										JOINT RightHandRing3
										{
											OFFSET -6.150223 0.000000 0.000000
											CHANNELS 3 Xrotation Yrotation Zrotation
											JOINT RightHandRing4
											{
												OFFSET -6.145386 0.000000 0.000000
												CHANNELS 3 Xrotation Yrotation Zrotation
												End Site
												{
													OFFSET 3.671402 4.923981 -0.202372
												}
											}
										}
									}
								}
								JOINT RightHandPinky1
								{
									OFFSET -18.920792 -0.453171 -11.426712
									CHANNELS 3 Xrotation Yrotation Zrotation
									JOINT RightHandPinky2
									{
										OFFSET -4.919586 0.000000 0.000000
										CHANNELS 3 Xrotation Yrotation Zrotation
										JOINT RightHandPinky3
										{
											OFFSET -5.233047 0.000000 0.000000
											CHANNELS 3 Xrotation Yrotation Zrotation
											JOINT RightHandPinky4
											{
												OFFSET -5.571716 0.000000 0.000000
												CHANNELS 3 Xrotation Yrotation Zrotation
												End Site
												{
													OFFSET 3.459808 4.342407 -0.466164
												}
											}
										}
									}
								}
							}
						}
					}
				}
			}
		}
	}
	JOINT LeftUpLeg
	{
		OFFSET 19.899099 -7.885101 -3.429500
		CHANNELS 3 Xrotation Yrotation Zrotation
		JOINT LeftLeg
		{
			OFFSET 1.745560 -36.997807 10.304700
			CHANNELS 3 Xrotation Yrotation Zrotation
			JOINT LeftFoot
			{
				OFFSET -1.745558 -29.803308 -13.615400
				CHANNELS 3 Xrotation Yrotation Zrotation
				JOINT LeftToeBase
				{
					OFFSET 1.181900 -18.539904 15.226099
					CHANNELS 3 Xrotation Yrotation Zrotation
					JOINT LeftToe_End
					{
						OFFSET -0.863701 1.402801 16.534700
						CHANNELS 3 Xrotation Yrotation Zrotation
						End Site
						{
							OFFSET 0.000000 16.616566 0.000000
						}
					}
				}
			}
		}
	}
	JOINT RightUpLeg
	{
		OFFSET -19.899099 -7.885101 -3.429500
		CHANNELS 3 Xrotation Yrotation Zrotation
		JOINT RightLeg
		{
			OFFSET -1.745560 -36.997807 10.304700
			CHANNELS 3 Xrotation Yrotation Zrotation
			JOINT RightFoot
			{
				OFFSET 1.745558 -29.803308 -13.615400
				CHANNELS 3 Xrotation Yrotation Zrotation
				JOINT RightToeBase
				{
					OFFSET -1.181900 -18.539904 15.226099
					CHANNELS 3 Xrotation Yrotation Zrotation
					JOINT RightToe_End
					{
						OFFSET 0.863701 1.402801 16.534700
						CHANNELS 3 Xrotation Yrotation Zrotation
						End Site
						{
							OFFSET 0.000000 16.616566 0.000000
						}
					}
				}
			}
		}
	}
}
MOTION
Frames: 4
Frame Time: 0.033333
-2.905319 36.655128 -3.142874 -4.246801 -32.492094 -6.497059 35.287090 4.059875 -7.258558 21.533570 -4.024111 4.766034 -0.626930 -3.868252 11.606032 -1.070441 9.430623 -4.264007 -23.075903 26.932860 -5.500122 -0.000001 0.000000 -0.000000 10.386724 -24.507960 38.145763 -41.471597 15.925414 -8.402706 -95.732505 -10.977968 -97.826245 0.525384 -6.157427 -1.873972 4.766515 -0.870682 -14.442467 15.978266 13.138778 8.498687 63.493439 -8.328163 3.891957 0.000000 -0.000000 -0.000002 -8.360442 8.693511 -87.699178 -0.046509 -0.068533 -75.940707 -0.020266 -0.050303 -48.935082 0.000002 0.000000 -0.000002 -4.240134 4.013236 -92.368118 -1.154446 -0.637860 -64.964251 -0.106103 1.186353 -73.079670 -0.000000 -0.000000 0.000005 -5.180828 2.976767 -88.479691 -0.070110 -4.900200 -78.558158 1.521108 0.513859 -67.723238 0.000001 -0.000001 0.000009 -3.659928 -7.656982 -82.963350 0.003380 -4.390310 -69.237634 1.856099 0.640990 -69.893107 -0.000000 0.000001 -0.000001 3.281729 -2.664082 7.901270 -25.916620 -4.172301 42.854813 -14.329013 8.706307 5.218721 0.096750 -0.502687 -9.797614 24.918371 -21.323361 30.343033 9.003302 8.349385 -18.319756 -15.989266 -18.685629 -12.439109 0.000001 0.000000 0.000002 -0.186764 -2.971535 61.031927 0.006370 4.395168 66.066139 1.914743 -0.427770 59.642332 -0.000001 -0.000004 0.000001 -1.238904 -0.145396 68.231691 -0.078711 4.899221 84.512567 0.919173 -1.334305 32.706846 0.000000 -0.000001 -0.000009 0.935118 -4.640881 79.106103 -0.728850 1.137453 73.233746 -0.065477 -1.198488 39.247643 -0.000002 -0.000004 -0.000004 -3.995154 0.093296 86.967228 -0.027245 0.052899 54.376601 -0.006583 0.028532 25.967321 -0.000000 -0.000001 0.000000 -75.732735 -40.540762 61.663993 103.989903 -21.600181 -9.859355 3.265809 2.391171 -19.413855 -2.122279 -0.162063 -0.212998 0.000000 0.000000 0.000000 -22.953974 9.532257 -85.387514 82.309435 32.475777 11.112984 -8.782187 -9.861962 37.503408 -15.168332 9.591051 14.493670 0.000000 -0.000000 0.000000 
-3.663393 36.686241 -3.137431 -3.697503 -32.101083 -5.985751 34.059435 5.312410 -6.777800 21.537396 -3.797806 4.889937 -0.616024 -3.716630 11.800893 -0.916033 8.887483 -3.932114 -20.487282 26.024817 -7.300112 0.000002 0.000000 -0.000001 8.726654 -26.064649 32.238971 -24.655175 8.497787 -14.233566 -104.162632 -21.503664 -96.063879 0.005857 -7.963036 -5.232945 4.766520 -0.870680 -14.442467 15.978259 13.138780 8.498685 63.493445 -8.328161 3.891960 0.000000 -0.000001 0.000000 -8.360444 8.693511 -87.699171 -0.046508 -0.068533 -75.940714 -0.020266 -0.050305 -48.935092 -0.000000 -0.000001 0.000001 -4.240132 4.013237 -92.368118 -1.154446 -0.637859 -64.964245 -0.106105 1.186352 -73.079664 0.000001 -0.000001 0.000005 -5.180826 2.976767 -88.479691 -0.070109 -4.900200 -78.558158 1.521108 0.513858 -67.723224 -0.000001 -0.000001 0.000008 -3.659930 -7.656979 -82.963350 0.003378 -4.390310 -69.237628 1.856101 0.640984 -69.893100 -0.000000 -0.000000 -0.000001 3.262011 -2.949007 7.810664 -24.706585 -5.435924 41.932498 -15.219704 10.171407 5.828698 0.028578 -1.616452 -12.479834 24.918371 -21.323361 30.343040 9.003304 8.349377 -18.319761 -15.989266 -18.685629 -12.439110 -0.000001 -0.000001 -0.000000 -0.186759 -2.971538 61.031927 0.006370 4.395170 66.066145 1.914744 -0.427775 59.642339 -0.000001 -0.000001 0.000001 -1.238901 -0.145401 68.231698 -0.078713 4.899219 84.512574 0.919172 -1.334300 32.706849 0.000001 -0.000001 -0.000001 0.935122 -4.640878 79.106103 -0.728851 1.137452 73.233746 -0.065477 -1.198487 39.247643 0.000001 -0.000000 -0.000002 -3.995154 0.093288 86.967228 -0.027251 0.052901 54.376601 -0.006584 0.028533 25.967319 0.000000 -0.000001 -0.000003 -75.866558 -40.156581 61.899252 102.968933 -22.401482 -9.975973 3.618377 2.755985 -19.724133 -2.117052 -0.158913 -0.267025 -0.000000 -0.000000 0.000000 -23.865169 11.251597 -85.973688 81.653832 33.546659 10.817846 -2.863070 -8.418380 39.442007 -19.831555 9.219581 14.449320 -0.000000 -0.000000 -0.000000 
-4.430634 36.692131 -3.322126 -3.762363 -31.162304 -5.604242 33.379087 5.998908 -6.281194 21.490540 -3.722937 4.985645 -0.662259 -3.688391 11.917186 -0.827120 8.297802 -2.847229 -17.943440 24.980415 -7.999367 -0.000001 0.000000 0.000001 8.103597 -28.550269 30.106699 -12.593557 2.798177 -19.670349 -110.211482 -27.262328 -96.779641 -0.031121 -8.852988 -5.261778 4.766517 -0.870680 -14.442462 15.978261 13.138784 8.498687 63.493439 -8.328161 3.891957 0.000000 -0.000000 -0.000002 -8.360439 8.693507 -87.699171 -0.046511 -0.068529 -75.940707 -0.020262 -0.050305 -48.935092 -0.000000 -0.000004 -0.000001 -4.240133 4.013234 -92.368118 -1.154445 -0.637860 -64.964251 -0.106102 1.186353 -73.079664 -0.000001 -0.000001 0.000001 -5.180827 2.976767 -88.479691 -0.070111 -4.900201 -78.558158 1.521108 0.513859 -67.723231 -0.000000 -0.000002 0.000004 -3.659930 -7.656982 -82.963344 0.003378 -4.390311 -69.237628 1.856099 0.640985 -69.893100 -0.000002 0.000003 0.000001 3.261506 -2.868811 7.798694 -23.424185 -6.970280 40.849551 -16.205131 12.726567 7.023968 -0.271878 -4.173141 -14.755389 24.918367 -21.323359 30.343033 9.003301 8.349377 -18.319758 -15.989261 -18.685632 -12.439108 0.000003 -0.000001 0.000001 -0.186763 -2.971537 61.031927 0.006364 4.395173 66.066145 1.914740 -0.427763 59.642332 -0.000002 -0.000002 0.000001 -1.238902 -0.145396 68.231691 -0.078713 4.899219 84.512567 0.919171 -1.334301 32.706842 0.000002 -0.000000 -0.000007 0.935118 -4.640880 79.106097 -0.728851 1.137454 73.233746 -0.065475 -1.198491 39.247643 -0.000002 -0.000000 0.000000 -3.995154 0.093294 86.967221 -0.027249 0.052899 54.376601 -0.006580 0.028530 25.967322 0.000001 0.000002 0.000001 -77.234024 -39.589050 60.444558 101.908144 -22.687462 -9.633496 4.776876 3.093103 -19.664723 -2.110848 -0.161876 -0.331262 -0.000000 -0.000000 0.000000 -23.832574 12.055015 -86.518498 81.871237 34.041280 9.888445 1.366765 -6.946565 41.082560 -23.738616 9.014279 14.723443 0.000000 -0.000001 -0.000000 
-4.532888 36.570793 -3.657276 -4.174921 -30.186994 -5.930369 32.655578 6.339594 -5.271250 21.291725 -3.772186 5.217794 -0.861864 -3.827971 12.121089 0.380325 6.784159 -1.272401 -13.739012 22.127540 -10.537092 -0.000000 0.000000 -0.000002 8.369351 -30.622719 30.637435 -8.325804 0.436026 -25.646136 -114.056175 -28.727335 -100.147765 0.136967 -5.625007 -3.680640 4.766518 -0.870680 -14.442464 15.978265 13.138784 8.498686 63.493445 -8.328162 3.891958 0.000000 -0.000000 -0.000001 -8.360444 8.693511 -87.699178 -0.046511 -0.068528 -75.940707 -0.020264 -0.050305 -48.935088 0.000003 0.000002 -0.000002 -4.240134 4.013237 -92.368118 -1.154445 -0.637861 -64.964251 -0.106103 1.186354 -73.079664 -0.000000 -0.000000 0.000002 -5.180828 2.976770 -88.479684 -0.070108 -4.900199 -78.558158 1.521108 0.513858 -67.723238 -0.000001 -0.000000 0.000004 -3.659930 -7.656979 -82.963350 0.003379 -4.390311 -69.237628 1.856096 0.640987 -69.893100 -0.000000 0.000003 -0.000001 3.133485 -1.660848 6.892404 -21.709297 -9.346217 40.214470 -17.335160 16.533914 8.267838 -0.782689 -7.599957 -16.237513 24.918371 -21.323357 30.343033 9.003299 8.349375 -18.319761 -15.989258 -18.685630 -12.439109 0.000003 -0.000001 0.000002 -0.186764 -2.971541 61.031934 0.006368 4.395174 66.066145 1.914740 -0.427769 59.642339 -0.000001 -0.000006 -0.000004 -1.238903 -0.145401 68.231691 -0.078716 4.899223 84.512574 0.919171 -1.334307 32.706849 0.000000 -0.000002 -0.000004 0.935121 -4.640881 79.106103 -0.728848 1.137452 73.233746 -0.065474 -1.198485 39.247643 -0.000002 -0.000001 -0.000002 -3.995155 0.093289 86.967228 -0.027246 0.052899 54.376601 -0.006583 0.028529 25.967319 -0.000000 0.000000 0.000001 -80.322062 -39.758750 57.161915 101.653398 -22.091333 -8.289388 6.570003 3.479867 -20.035921 -2.122410 -0.174707 -0.211502 0.000000 0.000000 -0.000000 -22.361075 10.777810 -86.634953 82.461543 33.557102 9.690731 -0.004530 -6.786172 41.391346 -23.609532 9.006921 14.752871 0.000000 0.000001 0.000000 
